Come Join Us AT
 
  http://publichd.org/

Download High Definition Torrents
Movies / TV Shows / Documentaries


-----------------------------------------------------------------
-----------------------------------------------------------------




Underworld.Awakening.2012.RC.720p.BluRay.x264.TDP



General

Complete name                            : Underworld.Awakening.2012.RC.720p.BluRay.x264-TDP.mkv
Format                                   : Matroska
Format version                           : Version 2
File size                                : 4.31 GiB
Duration                                 : 1h 25mn
Overall bit rate                         : 7 242 Kbps
SOURCE                                   : RC 720p
SUBTITLES                                : HC english for non english parts

Video
ID                                       : 1
Format                                   : AVC
Format/Info                              : Advanced Video Codec
Format profile                           : Main@L3.1
Format settings, CABAC                   : Yes
Format settings, ReFrames                : 2 frames
Muxing mode                              : Header stripping
Codec ID                                 : V_MPEG4/ISO/AVC
Duration                                 : 1h 25mn
Bit rate                                 : 6 650 Kbps
Width                                    : 1 280 pixels
Height                                   : 720 pixels
Display aspect ratio                     : 16:9
Frame rate                               : 25.000 fps
Color space                              : YUV
Chroma subsampling                       : 4:2:0
Bit depth                                : 8 bits
Scan type                                : Progressive
Bits/(Pixel*Frame)                       : 0.289
Stream size                              : 3.96 GiB (92%)
Writing library                          : x264 core 77
Default                                  : Yes
Forced                                   : No

Audio
ID                                       : Thx OBSERVER
Format                                   : AC-3
Format/Info                              : Audio Coding 3
Mode extension                           : CM (complete main)
Muxing mode                              : Header stripping
Codec ID                                 : A_AC3
Duration                                 : 1h 25mn
Bit rate mode                            : Constant
Bit rate                                 : 448 Kbps
Channel(s)                               : 6 channels
Channel positions                        : Front: L C R, Side: L R, LFE
Sampling rate                            : 48.0 KHz
Bit depth                                : 16 bits
Compression mode                         : Lossy
Stream size                              : 273 MiB (6%)
Default                                  : Yes
Forced                                   : No

IMDB : http://www.imdb.com/title/tt1496025/

Plot :
When human forces discover the existence of the Vampire and Lycan clans,
a war to eradicate both species commences. The vampire warrioress Selene
leads the battle against humankind.


 
http://shareimage.ro/images/hex0idd14rclpr5or.jpg
 
http://shareimage.ro/images/qw65lbpgkkjrdjjaw5pw.png